<svg id="svg" version="1.1" xmlns="http://www.w3.org/2000/svg" xmlns:xlink="http://www.w3.org/1999/xlink" width="400" height="400" viewBox="0, 0, 400,400"><g id="svgg"><path id="path0" d="M108.008 60.421 C 75.970 62.039,53.953 81.292,49.791 111.328 C 48.544 120.332,48.077 266.918,49.248 282.031 C 51.828 315.351,70.965 335.197,104.041 338.855 C 111.784 339.711,290.999 339.738,298.047 338.884 C 327.025 335.373,345.103 317.459,350.099 287.305 C 351.224 280.519,351.985 130.854,350.959 118.359 C 350.367 111.153,349.721 107.117,348.407 102.421 C 341.672 78.350,322.004 63.022,294.727 60.585 C 291.268 60.276,113.962 60.120,108.008 60.421 M143.178 102.026 C 145.761 103.014,148.675 105.645,150.056 108.235 L 150.977 109.961 151.172 139.844 L 151.367 169.727 200.000 169.727 L 248.633 169.727 248.828 140.039 C 249.021 110.778,249.035 110.326,249.854 108.594 C 251.175 105.799,253.301 103.658,256.065 102.339 L 258.570 101.143 272.351 101.255 L 286.133 101.367 288.281 102.386 C 294.064 105.130,295.828 108.822,296.031 118.604 L 296.177 125.685 304.436 125.950 C 315.571 126.308,318.788 127.855,321.812 134.307 L 322.852 136.523 322.968 153.569 L 323.085 170.614 326.905 170.767 C 333.338 171.026,338.116 174.177,340.311 179.609 C 341.695 183.034,341.707 206.412,340.326 209.766 C 337.753 216.017,332.757 219.419,325.935 219.564 L 322.852 219.630 322.852 236.866 L 322.852 254.102 321.757 256.445 C 318.725 262.938,315.184 264.524,303.845 264.470 L 296.155 264.433 296.026 271.767 C 295.855 281.513,294.015 285.226,287.975 288.016 C 285.129 289.331,261.010 289.540,257.232 288.283 C 254.275 287.299,251.420 284.760,249.983 281.836 L 249.023 279.883 248.919 249.706 L 248.814 219.528 200.091 219.627 L 151.367 219.727 151.172 249.805 C 150.979 279.549,150.967 279.903,150.137 281.699 C 149.011 284.135,146.495 286.573,143.808 287.833 L 141.602 288.867 127.734 288.867 L 113.867 288.867 111.670 287.788 C 105.899 284.954,104.297 281.408,104.297 271.470 L 104.297 264.454 96.493 264.471 C 86.424 264.492,83.305 263.537,80.225 259.485 C 77.380 255.745,77.344 255.454,77.344 236.551 L 77.344 219.616 74.512 219.645 C 67.390 219.718,61.719 215.799,59.755 209.448 C 58.674 205.953,58.534 183.798,59.573 180.850 C 61.837 174.435,66.416 171.125,73.498 170.784 L 77.314 170.600 77.426 153.171 L 77.539 135.742 78.467 133.875 C 81.621 127.524,84.869 126.020,95.801 125.851 L 103.906 125.725 103.906 119.585 C 103.906 108.557,106.529 103.709,113.669 101.537 C 116.316 100.732,140.859 101.139,143.178 102.026 M117.034 115.071 C 116.714 115.905,116.731 226.266,117.056 254.233 L 117.315 276.563 127.798 276.563 L 138.281 276.563 138.281 195.508 L 138.281 114.453 127.776 114.453 C 118.557 114.453,117.242 114.529,117.034 115.071 M261.719 195.502 L 261.719 276.563 272.219 276.563 L 282.720 276.563 282.985 256.543 C 283.132 245.532,283.197 209.102,283.130 175.586 L 283.008 114.648 272.363 114.545 L 261.719 114.441 261.719 195.502 M90.625 195.703 L 90.625 251.563 97.461 251.563 L 104.297 251.563 104.297 195.703 L 104.297 139.844 97.461 139.844 L 90.625 139.844 90.625 195.703 M295.703 195.703 L 295.703 251.581 302.637 251.474 L 309.570 251.367 309.570 195.703 L 309.570 140.039 302.637 139.932 L 295.703 139.826 295.703 195.703 " stroke="none" fill="#4dc6fa" fill-rule="evenodd"></path><path id="path1" d="M112.770 101.935 C 106.111 104.563,103.906 109.041,103.906 119.941 L 103.906 125.781 96.777 125.813 C 85.168 125.866,81.609 127.454,78.568 133.937 L 77.539 136.133 77.430 153.372 L 77.321 170.611 73.719 170.793 C 67.246 171.121,62.911 173.810,60.325 179.102 L 59.180 181.445 59.055 193.359 C 58.918 206.588,59.133 208.639,61.042 212.237 C 63.456 216.785,67.559 219.157,73.517 219.448 L 77.307 219.634 77.423 237.063 L 77.539 254.492 78.626 256.705 C 81.666 262.895,84.620 264.218,95.765 264.382 L 104.226 264.507 104.359 272.000 C 104.539 282.110,105.925 284.960,112.062 287.838 L 114.258 288.867 126.212 288.995 C 143.451 289.180,146.517 288.255,149.936 281.836 L 150.977 279.883 151.084 249.707 L 151.191 219.531 200.000 219.531 L 248.809 219.531 248.916 249.512 L 249.023 279.492 250.044 281.641 C 251.342 284.374,253.517 286.548,256.250 287.847 L 258.398 288.867 272.266 288.867 C 288.064 288.867,287.982 288.882,291.815 285.297 C 295.213 282.119,295.882 279.940,295.995 271.680 L 296.092 264.648 304.404 264.453 L 312.716 264.258 315.322 262.974 C 322.404 259.485,322.852 257.920,322.852 236.663 L 322.852 219.616 326.407 219.460 C 333.709 219.141,338.936 214.862,340.874 207.617 C 341.672 204.635,341.616 184.563,340.801 181.434 C 339.102 174.913,334.247 171.259,326.679 170.806 L 323.085 170.591 322.968 153.752 C 322.832 134.226,322.834 134.239,318.989 130.300 C 315.362 126.586,313.810 126.190,302.344 126.053 L 295.898 125.977 295.703 118.359 C 295.446 108.332,294.014 105.238,288.337 102.450 L 286.133 101.367 272.070 101.367 L 258.008 101.367 255.721 102.525 C 253.202 103.800,251.302 105.771,249.924 108.541 L 249.023 110.352 248.828 140.039 L 248.633 169.727 199.912 169.826 L 151.191 169.925 151.084 140.138 L 150.977 110.352 150.016 108.415 C 148.736 105.831,146.496 103.662,143.808 102.402 L 141.602 101.367 128.125 101.280 C 115.690 101.200,114.503 101.251,112.770 101.935 M138.477 195.508 L 138.477 276.367 127.843 276.471 L 117.209 276.575 117.093 263.971 C 116.835 236.016,116.809 114.962,117.060 114.711 C 117.209 114.562,122.088 114.488,127.903 114.545 L 138.477 114.648 138.477 195.508 M283.008 195.508 L 283.008 276.367 272.266 276.367 L 261.523 276.367 261.416 196.289 C 261.358 152.246,261.406 115.813,261.523 115.326 L 261.737 114.441 272.372 114.545 L 283.008 114.648 283.008 195.508 M104.297 195.508 L 104.297 251.563 97.461 251.563 L 90.625 251.563 90.625 195.508 L 90.625 139.453 97.461 139.453 L 104.297 139.453 104.297 195.508 M309.570 195.508 L 309.570 251.367 302.637 251.474 L 295.703 251.581 295.703 195.777 C 295.703 165.085,295.824 139.853,295.972 139.705 C 296.121 139.557,299.241 139.483,302.906 139.542 L 309.570 139.648 309.570 195.508 M248.346 195.020 L 248.242 206.836 200.000 206.887 C 155.735 206.934,151.736 206.886,151.492 206.301 C 151.346 205.951,151.214 200.610,151.199 194.434 L 151.172 183.203 199.810 183.203 L 248.449 183.203 248.346 195.020 M77.344 195.254 L 77.344 206.914 74.958 206.986 C 71.302 207.096,71.484 207.699,71.484 195.492 C 71.484 182.674,71.240 183.594,74.651 183.594 L 77.344 183.594 77.344 195.254 M327.682 184.323 C 328.642 185.282,328.816 186.993,328.886 196.117 C 328.961 205.990,328.759 206.494,324.580 206.874 L 322.656 207.049 322.656 195.939 C 322.656 189.829,322.550 184.551,322.419 184.212 C 322.044 183.233,326.691 183.331,327.682 184.323 " stroke="none" fill="#042a49" fill-rule="evenodd"></path><path id="path2" d="M0.000 200.000 L 0.000 400.000 200.000 400.000 L 400.000 400.000 400.000 200.000 L 400.000 0.000 200.000 0.000 L 0.000 0.000 0.000 200.000 M297.056 60.765 C 328.197 64.849,346.696 83.020,350.697 113.458 C 351.519 119.713,351.612 271.236,350.800 281.445 C 348.727 307.494,336.349 326.053,315.234 334.767 C 309.754 337.029,303.562 338.433,294.922 339.372 C 288.423 340.079,108.244 339.680,102.669 338.946 C 70.876 334.764,52.361 315.553,49.212 283.476 C 48.642 277.670,48.297 129.547,48.833 120.516 C 50.913 85.444,69.863 64.518,102.930 60.777 C 110.471 59.924,290.557 59.913,297.056 60.765 M151.563 194.928 L 151.563 206.641 199.805 206.641 L 248.047 206.641 248.047 194.919 L 248.047 183.197 199.805 183.206 L 151.563 183.215 151.563 194.928 M71.902 184.325 C 71.349 185.359,71.381 205.460,71.937 206.130 C 72.202 206.449,73.260 206.641,74.759 206.641 L 77.156 206.641 77.085 195.996 C 77.046 190.142,77.001 184.956,76.984 184.473 C 76.941 183.254,72.543 183.126,71.902 184.325 M322.656 195.166 L 322.656 206.737 324.799 206.560 C 328.599 206.245,328.516 206.498,328.516 195.234 L 328.516 185.511 327.557 184.553 C 326.792 183.788,326.199 183.594,324.627 183.594 L 322.656 183.594 322.656 195.166 M152.242 191.685 C 152.164 192.928,152.100 192.012,152.099 189.648 C 152.098 187.285,152.162 186.268,152.241 187.388 C 152.319 188.508,152.320 190.442,152.242 191.685 M328.026 198.904 C 327.958 201.333,327.901 199.453,327.901 194.727 C 327.901 190.000,327.957 188.013,328.026 190.310 C 328.095 192.608,328.095 196.475,328.026 198.904 M247.557 201.683 C 247.490 204.302,247.435 202.051,247.435 196.680 C 247.435 191.309,247.490 189.166,247.558 191.917 C 247.625 194.669,247.625 199.064,247.557 201.683 M323.327 191.303 C 323.237 191.897,323.162 191.504,323.159 190.430 C 323.156 189.355,323.229 188.870,323.322 189.350 C 323.415 189.831,323.417 190.709,323.327 191.303 M152.243 200.864 C 152.166 202.215,152.103 201.211,152.102 198.633 C 152.101 196.055,152.164 194.949,152.241 196.176 C 152.319 197.403,152.319 199.512,152.243 200.864 M323.323 198.921 C 323.230 199.407,323.150 199.102,323.145 198.242 C 323.141 197.383,323.217 196.985,323.315 197.359 C 323.413 197.732,323.417 198.435,323.323 198.921 M323.332 203.800 C 323.247 204.610,323.177 204.043,323.175 202.539 C 323.173 201.035,323.243 200.372,323.329 201.066 C 323.415 201.759,323.417 202.989,323.332 203.800 M325.391 206.099 C 325.391 206.182,324.863 206.250,324.219 206.250 C 323.574 206.250,323.047 206.105,323.047 205.927 C 323.047 205.749,323.574 205.681,324.219 205.776 C 324.863 205.871,325.391 206.016,325.391 206.099 M223.370 206.152 C 210.335 206.209,188.890 206.209,175.714 206.152 C 162.538 206.095,173.203 206.049,199.414 206.049 C 225.625 206.049,236.405 206.095,223.370 206.152 " stroke="none" fill="#fbfbfc" fill-rule="evenodd"></path><path id="path3" d="M108.110 60.433 C 108.596 60.526,109.299 60.522,109.673 60.425 C 110.046 60.327,109.648 60.250,108.789 60.255 C 107.930 60.259,107.624 60.339,108.110 60.433 M291.895 60.426 C 292.271 60.524,292.886 60.524,293.262 60.426 C 293.638 60.327,293.330 60.247,292.578 60.247 C 291.826 60.247,291.519 60.327,291.895 60.426 M333.789 77.344 C 334.847 78.418,335.801 79.297,335.908 79.297 C 336.016 79.297,335.238 78.418,334.180 77.344 C 333.122 76.270,332.168 75.391,332.061 75.391 C 331.953 75.391,332.731 76.270,333.789 77.344 M48.578 127.734 C 48.578 129.775,48.644 130.610,48.725 129.590 C 48.805 128.569,48.805 126.899,48.725 125.879 C 48.644 124.858,48.578 125.693,48.578 127.734 M351.320 128.906 C 351.320 131.377,351.383 132.388,351.461 131.152 C 351.538 129.917,351.538 127.896,351.461 126.660 C 351.383 125.425,351.320 126.436,351.320 128.906 M351.341 143.555 C 351.341 148.926,351.396 151.177,351.463 148.558 C 351.531 145.939,351.531 141.544,351.464 138.792 C 351.397 136.041,351.341 138.184,351.341 143.555 M48.578 140.234 C 48.578 142.275,48.644 143.110,48.725 142.090 C 48.805 141.069,48.805 139.399,48.725 138.379 C 48.644 137.358,48.578 138.193,48.578 140.234 M48.544 167.188 C 48.544 168.154,48.620 168.550,48.713 168.066 C 48.806 167.583,48.806 166.792,48.713 166.309 C 48.620 165.825,48.544 166.221,48.544 167.188 M48.603 181.055 C 48.603 185.566,48.660 187.359,48.729 185.037 C 48.798 182.716,48.798 179.025,48.729 176.834 C 48.659 174.644,48.603 176.543,48.603 181.055 M151.344 194.141 C 151.344 200.264,151.398 202.769,151.464 199.707 C 151.530 196.646,151.530 191.636,151.464 188.574 C 151.398 185.513,151.344 188.018,151.344 194.141 M152.099 189.648 C 152.100 192.012,152.164 192.928,152.242 191.685 C 152.320 190.442,152.319 188.508,152.241 187.388 C 152.162 186.268,152.098 187.285,152.099 189.648 M77.078 188.281 C 77.078 189.678,77.149 190.249,77.236 189.551 C 77.322 188.853,77.322 187.710,77.236 187.012 C 77.149 186.313,77.078 186.885,77.078 188.281 M327.901 194.727 C 327.901 199.453,327.958 201.333,328.026 198.904 C 328.095 196.475,328.095 192.608,328.026 190.310 C 327.957 188.013,327.901 190.000,327.901 194.727 M247.435 196.680 C 247.435 202.051,247.490 204.302,247.557 201.683 C 247.625 199.064,247.625 194.669,247.558 191.917 C 247.490 189.166,247.435 191.309,247.435 196.680 M323.159 190.430 C 323.162 191.504,323.237 191.897,323.327 191.303 C 323.417 190.709,323.415 189.831,323.322 189.350 C 323.229 188.870,323.156 189.355,323.159 190.430 M351.324 194.336 C 351.324 197.129,351.387 198.220,351.462 196.761 C 351.537 195.302,351.537 193.017,351.461 191.683 C 351.385 190.349,351.323 191.543,351.324 194.336 M152.102 198.633 C 152.103 201.211,152.166 202.215,152.243 200.864 C 152.319 199.512,152.319 197.403,152.241 196.176 C 152.164 194.949,152.101 196.055,152.102 198.633 M323.145 198.242 C 323.150 199.102,323.230 199.407,323.323 198.921 C 323.417 198.435,323.413 197.732,323.315 197.359 C 323.217 196.985,323.141 197.383,323.145 198.242 M323.175 202.539 C 323.177 204.043,323.247 204.610,323.332 203.800 C 323.417 202.989,323.415 201.759,323.329 201.066 C 323.243 200.372,323.173 201.035,323.175 202.539 M323.047 205.927 C 323.047 206.105,323.574 206.250,324.219 206.250 C 324.863 206.250,325.391 206.182,325.391 206.099 C 325.391 206.016,324.863 205.871,324.219 205.776 C 323.574 205.681,323.047 205.749,323.047 205.927 M175.714 206.152 C 188.890 206.209,210.335 206.209,223.370 206.152 C 236.405 206.095,225.625 206.049,199.414 206.049 C 173.203 206.049,162.538 206.095,175.714 206.152 M48.605 263.477 C 48.605 268.418,48.661 270.386,48.729 267.849 C 48.798 265.313,48.797 261.270,48.729 258.865 C 48.660 256.460,48.605 258.535,48.605 263.477 M351.331 265.625 C 351.331 269.170,351.390 270.620,351.462 268.848 C 351.535 267.075,351.535 264.175,351.462 262.402 C 351.390 260.630,351.331 262.080,351.331 265.625 M333.203 322.852 C 332.254 323.818,331.566 324.609,331.673 324.609 C 331.781 324.609,332.645 323.818,333.594 322.852 C 334.543 321.885,335.231 321.094,335.124 321.094 C 335.016 321.094,334.152 321.885,333.203 322.852 M157.520 339.746 C 181.743 339.802,221.382 339.802,245.605 339.746 C 269.829 339.691,250.010 339.645,201.563 339.645 C 153.115 339.645,133.296 339.691,157.520 339.746 " stroke="none" fill="#f1f3f4" fill-rule="evenodd"></path><path id="path4" d="M295.777 119.411 C 295.736 122.889,295.835 125.817,295.996 125.917 C 296.157 126.018,296.243 124.138,296.187 121.741 C 296.001 113.840,295.852 112.992,295.777 119.411 M138.473 195.508 C 138.473 239.980,138.518 258.116,138.574 235.809 C 138.630 213.501,138.630 177.115,138.574 154.949 C 138.518 132.784,138.473 151.035,138.473 195.508 M261.518 173.438 C 261.518 205.557,261.565 218.696,261.621 202.637 C 261.678 186.577,261.678 160.298,261.621 144.238 C 261.565 128.179,261.518 141.318,261.518 173.438 M298.535 126.068 C 299.556 126.149,301.226 126.149,302.246 126.068 C 303.267 125.988,302.432 125.922,300.391 125.922 C 298.350 125.922,297.515 125.988,298.535 126.068 M93.828 139.744 C 95.697 139.815,98.861 139.815,100.859 139.744 C 102.857 139.673,101.328 139.615,97.461 139.615 C 93.594 139.614,91.959 139.672,93.828 139.744 M298.242 139.719 C 303.963 140.001,309.678 140.015,309.511 139.746 C 309.411 139.585,306.307 139.487,302.614 139.528 C 298.920 139.570,296.953 139.656,298.242 139.719 M248.220 194.727 C 248.220 201.172,248.273 203.863,248.339 200.708 C 248.404 197.552,248.405 192.279,248.339 188.989 C 248.274 185.699,248.220 188.281,248.220 194.727 M328.627 188.867 C 328.630 189.941,328.706 190.334,328.796 189.741 C 328.886 189.147,328.883 188.268,328.791 187.788 C 328.698 187.307,328.624 187.793,328.627 188.867 M328.671 198.828 C 328.671 201.943,328.732 203.218,328.806 201.660 C 328.880 200.103,328.880 197.554,328.806 195.996 C 328.732 194.438,328.671 195.713,328.671 198.828 M73.145 206.920 C 73.735 207.010,74.702 207.010,75.293 206.920 C 75.884 206.831,75.400 206.758,74.219 206.758 C 73.037 206.758,72.554 206.831,73.145 206.920 M153.619 206.921 C 154.212 207.011,155.091 207.008,155.572 206.916 C 156.052 206.823,155.566 206.749,154.492 206.752 C 153.418 206.755,153.025 206.831,153.619 206.921 M160.254 206.928 C 161.274 207.008,162.944 207.008,163.965 206.928 C 164.985 206.847,164.150 206.781,162.109 206.781 C 160.068 206.781,159.233 206.847,160.254 206.928 M172.168 206.927 C 173.081 207.009,174.575 207.009,175.488 206.927 C 176.401 206.844,175.654 206.777,173.828 206.777 C 172.002 206.777,171.255 206.844,172.168 206.927 M178.223 206.920 C 178.813 207.010,179.780 207.010,180.371 206.920 C 180.962 206.831,180.479 206.758,179.297 206.758 C 178.115 206.758,177.632 206.831,178.223 206.920 M182.910 206.920 C 183.501 207.010,184.468 207.010,185.059 206.920 C 185.649 206.831,185.166 206.758,183.984 206.758 C 182.803 206.758,182.319 206.831,182.910 206.920 M188.184 206.929 C 189.312 207.008,191.157 207.008,192.285 206.929 C 193.413 206.850,192.490 206.785,190.234 206.785 C 187.979 206.785,187.056 206.850,188.184 206.929 M196.784 206.924 C 197.486 207.011,198.541 207.009,199.128 206.920 C 199.715 206.831,199.141 206.759,197.852 206.762 C 196.563 206.764,196.082 206.837,196.784 206.924 M207.134 206.921 C 207.728 207.011,208.607 207.008,209.087 206.916 C 209.568 206.823,209.082 206.749,208.008 206.752 C 206.934 206.755,206.541 206.831,207.134 206.921 M211.035 206.920 C 211.626 207.010,212.593 207.010,213.184 206.920 C 213.774 206.831,213.291 206.758,212.109 206.758 C 210.928 206.758,210.444 206.831,211.035 206.920 M215.141 206.917 C 215.627 207.010,216.330 207.007,216.704 206.909 C 217.077 206.811,216.680 206.735,215.820 206.739 C 214.961 206.743,214.655 206.823,215.141 206.917 M219.244 206.921 C 219.837 207.011,220.716 207.008,221.197 206.916 C 221.677 206.823,221.191 206.749,220.117 206.752 C 219.043 206.755,218.650 206.831,219.244 206.921 M227.065 206.930 C 228.308 207.007,230.242 207.007,231.362 206.928 C 232.482 206.849,231.465 206.786,229.102 206.787 C 226.738 206.788,225.822 206.852,227.065 206.930 M239.746 206.931 C 241.304 207.005,243.853 207.005,245.410 206.931 C 246.968 206.857,245.693 206.796,242.578 206.796 C 239.463 206.796,238.188 206.857,239.746 206.931 M261.511 254.102 C 261.511 266.348,261.560 271.301,261.621 265.109 C 261.681 258.917,261.681 248.897,261.621 242.843 C 261.560 236.789,261.511 241.855,261.511 254.102 M116.914 248.828 C 116.914 250.010,116.987 250.493,117.077 249.902 C 117.166 249.312,117.166 248.345,117.077 247.754 C 116.987 247.163,116.914 247.646,116.914 248.828 M282.981 266.797 C 282.981 272.061,283.037 274.214,283.104 271.582 C 283.172 268.950,283.172 264.644,283.104 262.012 C 283.037 259.380,282.981 261.533,282.981 266.797 " stroke="none" fill="#7c94a4" fill-rule="evenodd"></path></g></svg>